<svg xmlns="http://www.w3.org/2000/svg" width="64" height="64" viewBox="0 0 64 64">
    <g fill="none" fill-rule="evenodd">
        <path fill="#F6C932" d="M32 61.5C15.734 61.5 2.5 48.267 2.5 32S15.734 2.5 32 2.5 61.5 15.733 61.5 32 48.266 61.5 32 61.5"/>
        <path fill="#E7A02A" d="M32 61C17.112 61 5 48.888 5 34S17.112 7 32 7s27 12.112 27 27-12.112 27-27 27m0-58.5C15.734 2.5 2.5 15.733 2.5 32S15.734 61.5 32 61.5 61.5 48.267 61.5 32 48.266 2.5 32 2.5"/>
        <path fill="#FBF839" d="M32 57C17.112 57 5 44.888 5 30S17.112 3 32 3s27 12.112 27 27-12.112 27-27 27m0-54.5C15.734 2.5 2.5 15.733 2.5 32S15.734 61.5 32 61.5 61.5 48.267 61.5 32 48.266 2.5 32 2.5"/>
        <path fill="#F1E035" d="M32 0C14.327 0 0 14.327 0 32c0 17.673 14.327 32 32 32 17.673 0 32-14.327 32-32C64 14.327 49.673 0 32 0m0 5c14.888 0 27 12.112 27 27S46.888 59 32 59 5 46.888 5 32 17.112 5 32 5"/>
        <path fill="#E7A02A" d="M21.618 42.871l3.657-4.365c2.085 1.887 4.13 2.99 6.568 2.99 2.831 0 4.601-1.378 4.601-3.895 0-2.36-2.006-3.736-4.876-3.736-1.73 0-3.304.473-4.6 1.024l-3.5-2.32L24.252 19h16.91v5.31H29.444l-.315 4.757c1.101-.275 2.084-.47 3.618-.47 5.35 0 9.635 2.594 9.635 8.886 0 5.822-4.129 9.517-10.46 9.517-4.405 0-7.63-1.572-10.304-4.129"/>
        <path fill="#F1E035" d="M21.618 41.871l3.657-4.365c2.085 1.887 4.13 2.99 6.568 2.99 2.831 0 4.601-1.378 4.601-3.895 0-2.36-2.006-3.736-4.876-3.736-1.73 0-3.304.473-4.6 1.024l-3.5-2.32L24.252 18h16.91v5.31H29.444l-.315 4.757c1.101-.275 2.084-.47 3.618-.47 5.35 0 9.635 2.594 9.635 8.886 0 5.822-4.129 9.517-10.46 9.517-4.405 0-7.63-1.572-10.304-4.129"/>
        <path fill="#FBF839" d="M24.253 19h16.91v-1h-16.91l-.786 13.568.056.036zM32.747 27.596c-1.502 0-2.477.189-3.55.456l-.068 1.016c1.101-.276 2.084-.472 3.618-.472 5.2 0 9.382 2.464 9.613 8.379.007-.164.022-.323.022-.491 0-6.292-4.286-8.888-9.635-8.888M25.275 38.506c2.084 1.888 4.13 2.989 6.567 2.989 2.832 0 4.601-1.377 4.601-3.893 0-.16-.03-.305-.049-.455-.246 2.162-1.936 3.348-4.552 3.348-2.438 0-4.483-1.101-6.567-2.99l-3.657 4.366c.156.15.321.283.481.426l3.176-3.791z"/>
    </g>
</svg>
