<?xml version="1.0" encoding="UTF-8"?>
<svg width="48px" height="48px" viewBox="0 0 48 48" version="1.1" xmlns="http://www.w3.org/2000/svg" xmlns:xlink="http://www.w3.org/1999/xlink">
    <!-- Generator: Sketch 52.2 (67145) - http://www.bohemiancoding.com/sketch -->
    <title>About - Fully Anonymous - Small</title>
    <desc>Created with Sketch.</desc>
    <g id="About---Fully-Anonymous---Small" stroke="none" stroke-width="1" fill="none" fill-rule="evenodd">
        <g>
            <polygon id="Fill-1" points="0 48 48 48 48 0 0 0"></polygon>
            <g id="Group-8" transform="translate(4.000000, 0.000000)" fill="#FFFFFF">
                <path d="M20,3 C25.514,3 30,7.486 30,13 L30,16 L10,16 L10,13 C10,7.486 14.486,3 20,3 Z M33,19 L33,13 C33,5.82 27.18,0 20,0 C12.82,0 7,5.82 7,13 L7,19 L0,19 L0,22 L8,22 L32,22 L40,22 L40,19 L33,19 Z" id="Fill-2"></path>
                <polygon id="Fill-4" points="7 36 7 48 33 48 33 36 20 46"></polygon>
                <path d="M7,27 C7,30.313 9.687,33 13,33 C16.313,33 19,30.313 19,27 L19,26 L21,26 L21,27 C21,30.313 23.687,33 27,33 C30.313,33 33,30.313 33,27 L33,24 L7,24 L7,27 Z" id="Fill-6"></path>
            </g>
        </g>
    </g>
</svg>