<?xml version="1.0" encoding="UTF-8"?>
<svg width="72px" height="64px" viewBox="0 0 72 64" version="1.1" xmlns="http://www.w3.org/2000/svg" xmlns:xlink="http://www.w3.org/1999/xlink">
    <!-- Generator: Sketch 52.2 (67145) - http://www.bohemiancoding.com/sketch -->
    <title>Game - Big Wheel</title>
    <desc>Created with Sketch.</desc>
    <defs>
        <path d="M23.234,2.019 C7.233,6.307 -2.262,22.758 2.025,38.762 C6.313,54.765 22.759,64.262 38.758,59.974 C54.759,55.685 64.254,39.236 59.967,23.232 C56.376,9.829 44.258,0.989 31.015,0.989 C28.446,0.99 25.833,1.322 23.234,2.019 Z" id="path-1"></path>
        <path d="M0.817,7.818 L21.996,28.997 L14.244,0.066 C8.924,1.492 4.713,3.923 0.817,7.818 Z" id="path-3"></path>
        <path d="M0.066,14.245 L28.996,21.997 L7.817,0.818 C3.923,4.713 1.491,8.924 0.066,14.245 Z" id="path-5"></path>
        <path d="M2.066,15.749 L30.996,7.997 L2.066,0.245 C0.64,5.566 0.64,10.427 2.066,15.749 Z" id="path-7"></path>
        <path d="M0.066,8.749 C1.492,14.069 3.923,18.28 7.817,22.176 L28.996,0.997 L0.066,8.749 Z" id="path-9"></path>
        <path d="M0.817,22.176 C4.713,26.07 8.924,28.501 14.245,29.928 L21.996,0.997 L0.817,22.176 Z" id="path-11"></path>
        <path d="M0.244,29.928 C5.565,31.354 10.428,31.354 15.748,29.928 L7.996,0.997 L0.244,29.928 Z" id="path-13"></path>
        <path d="M8.748,29.928 C14.069,28.501 18.281,26.07 22.176,22.176 L0.996,0.997 L8.748,29.928 Z" id="path-15"></path>
        <path d="M22.175,22.176 C26.07,18.28 28.501,14.069 29.926,8.748 L0.997,0.997 L22.175,22.176 Z" id="path-17"></path>
        <path d="M0.996,7.997 L29.926,15.749 C31.352,10.427 31.352,5.566 29.926,0.244 L0.996,7.997 Z" id="path-19"></path>
        <path d="M0.996,21.997 L29.926,14.245 C28.501,8.924 26.07,4.714 22.175,0.818 L0.996,21.997 Z" id="path-21"></path>
        <path d="M0.997,28.997 L22.175,7.818 C18.281,3.923 14.069,1.492 8.748,0.066 L0.997,28.997 Z" id="path-23"></path>
        <path d="M0.244,2.066 L7.996,30.997 L15.748,2.066 C13.088,1.353 10.542,0.997 7.996,0.997 C5.451,0.997 2.905,1.353 0.244,2.066 Z" id="path-25"></path>
        <path d="M0,32 C0,49.645 14.355,64 32,64 C49.644,64 64,49.645 64,32 C64,14.356 49.644,0 32,0 C14.355,0 0,14.356 0,32 Z M4,32 C4,16.561 16.56,4 32,4 C47.439,4 60,16.561 60,32 C60,47.44 47.439,60 32,60 C16.56,60 4,47.44 4,32 Z" id="path-27"></path>
        <path d="M36.898,0.522 C36.623,1 36.786,1.612 37.264,1.889 C37.742,2.164 38.354,2 38.631,1.522 C38.906,1.044 38.742,0.432 38.264,0.156 C38.107,0.065 37.935,0.022 37.766,0.022 C37.42,0.022 37.083,0.201 36.898,0.522 Z M21.235,1.022 C21.235,1.574 21.684,2.023 22.235,2.022 C22.787,2.022 23.235,1.575 23.235,1.022 C23.235,0.47 22.788,0.023 22.235,0.023 C21.684,0.023 21.235,0.47 21.235,1.022 Z M50.714,7.921 C50.235,8.198 50.071,8.809 50.348,9.287 C50.623,9.764 51.235,9.928 51.713,9.653 C52.192,9.377 52.356,8.765 52.079,8.287 C51.894,7.966 51.558,7.787 51.213,7.787 C51.043,7.787 50.871,7.83 50.714,7.921 Z M8.287,7.921 C7.809,8.198 7.645,8.809 7.921,9.287 C8.197,9.765 8.808,9.928 9.287,9.653 C9.765,9.377 9.929,8.766 9.652,8.287 C9.468,7.966 9.132,7.787 8.787,7.787 C8.617,7.787 8.445,7.83 8.287,7.921 Z M57.979,22.236 C57.978,22.788 58.426,23.236 58.978,23.236 C59.53,23.236 59.978,22.788 59.978,22.236 C59.978,21.683 59.53,21.235 58.978,21.235 C58.426,21.235 57.978,21.683 57.979,22.236 Z M0.156,21.735 C-0.119,22.214 0.045,22.825 0.523,23.102 C1.001,23.378 1.613,23.213 1.888,22.735 C2.164,22.257 2.001,21.645 1.523,21.369 C1.365,21.278 1.193,21.235 1.023,21.235 C0.678,21.235 0.342,21.414 0.156,21.735 Z M0.022,37.764 C0.022,38.316 0.471,38.764 1.022,38.764 C1.574,38.764 2.022,38.316 2.022,37.764 C2.022,37.213 1.575,36.764 1.022,36.764 C0.471,36.764 0.022,37.212 0.022,37.764 Z M58.112,37.265 C57.836,37.742 58,38.355 58.478,38.631 C58.956,38.906 59.567,38.742 59.844,38.265 C60.119,37.786 59.956,37.175 59.477,36.899 C59.32,36.808 59.148,36.765 58.979,36.765 C58.633,36.765 58.297,36.944 58.112,37.265 Z M50.714,50.347 C50.235,50.623 50.071,51.236 50.348,51.713 C50.623,52.191 51.235,52.354 51.713,52.079 C52.19,51.803 52.356,51.191 52.079,50.714 C51.894,50.393 51.557,50.213 51.212,50.213 C51.042,50.213 50.871,50.256 50.714,50.347 Z M8.287,50.347 C7.808,50.623 7.645,51.236 7.921,51.713 C8.197,52.191 8.808,52.354 9.287,52.079 C9.765,51.803 9.929,51.191 9.652,50.714 C9.468,50.393 9.132,50.213 8.786,50.213 C8.616,50.213 8.445,50.256 8.287,50.347 Z M21.37,58.479 C21.094,58.956 21.257,59.568 21.736,59.844 C22.214,60.12 22.825,59.956 23.102,59.478 C23.378,58.999 23.213,58.388 22.736,58.113 C22.578,58.021 22.406,57.978 22.236,57.978 C21.891,57.978 21.555,58.157 21.37,58.479 Z M37.765,57.978 C37.213,57.977 36.765,58.426 36.765,58.977 C36.765,59.529 37.213,59.977 37.765,59.977 C38.316,59.977 38.765,59.53 38.765,58.977 C38.765,58.426 38.317,57.978 37.766,57.978 C37.766,57.978 37.765,57.978 37.765,57.978 Z" id="path-29"></path>
        <path d="M27,32 C27,36.9718571 31.0294286,41 36,41 C40.9705714,41 45,36.9718571 45,32 C45,27.0294286 40.9705714,23 36,23 C31.0294286,23 27,27.0294286 27,32 Z" id="path-31"></path>
    </defs>
    <g id="Game---Big-Wheel" stroke="none" stroke-width="1" fill="none" fill-rule="evenodd">
        <g id="Group-58">
            <polygon id="Fill-1" points="0 64 72 64 72 0 0 0"></polygon>
            <g id="Group-4" transform="translate(5.000000, 1.000000)">
                <mask id="mask-2" fill="white">
                    <use xlink:href="#path-1"></use>
                </mask>
                <g id="Clip-3"></g>
                <polygon id="Fill-2" fill="#FFBB32" mask="url(#mask-2)" points="-4.004 66.004 65.996 66.004 65.996 -4.011 -4.004 -4.011"></polygon>
            </g>
            <g id="Group-7" transform="translate(14.000000, 3.000000)">
                <mask id="mask-4" fill="white">
                    <use xlink:href="#path-3"></use>
                </mask>
                <g id="Clip-6"></g>
                <polygon id="Fill-5" fill="#232F3D" mask="url(#mask-4)" points="-4.183 33.996 26.996 33.996 26.996 -4.934 -4.183 -4.934"></polygon>
            </g>
            <g id="Group-10" transform="translate(7.000000, 10.000000)">
                <mask id="mask-6" fill="white">
                    <use xlink:href="#path-5"></use>
                </mask>
                <g id="Clip-9"></g>
                <polygon id="Fill-8" fill="#35D95F" mask="url(#mask-6)" points="-4.935 26.996 33.996 26.996 33.996 -4.182 -4.935 -4.182"></polygon>
            </g>
            <g id="Group-13" transform="translate(5.000000, 24.000000)">
                <mask id="mask-8" fill="white">
                    <use xlink:href="#path-7"></use>
                </mask>
                <g id="Clip-12"></g>
                <polygon id="Fill-11" fill="#232F3D" mask="url(#mask-8)" points="-4.004 20.749 35.996 20.749 35.996 -4.755 -4.004 -4.755"></polygon>
            </g>
            <g id="Group-16" transform="translate(7.000000, 31.000000)">
                <mask id="mask-10" fill="white">
                    <use xlink:href="#path-9"></use>
                </mask>
                <g id="Clip-15"></g>
                <polygon id="Fill-14" fill="#C23EFA" mask="url(#mask-10)" points="-4.935 27.176 33.996 27.176 33.996 -4.003 -4.935 -4.003"></polygon>
            </g>
            <g id="Group-19" transform="translate(14.000000, 31.000000)">
                <mask id="mask-12" fill="white">
                    <use xlink:href="#path-11"></use>
                </mask>
                <g id="Clip-18"></g>
                <polygon id="Fill-17" fill="#232F3D" mask="url(#mask-12)" points="-4.183 34.928 26.996 34.928 26.996 -4.003 -4.183 -4.003"></polygon>
            </g>
            <g id="Group-22" transform="translate(28.000000, 31.000000)">
                <mask id="mask-14" fill="white">
                    <use xlink:href="#path-13"></use>
                </mask>
                <g id="Clip-21"></g>
                <polygon id="Fill-20" fill="#F2553D" mask="url(#mask-14)" points="-4.756 35.997 20.748 35.997 20.748 -4.003 -4.756 -4.003"></polygon>
            </g>
            <g id="Group-25" transform="translate(35.000000, 31.000000)">
                <mask id="mask-16" fill="white">
                    <use xlink:href="#path-15"></use>
                </mask>
                <g id="Clip-24"></g>
                <polygon id="Fill-23" fill="#232F3D" mask="url(#mask-16)" points="-4.004 34.928 27.176 34.928 27.176 -4.003 -4.004 -4.003"></polygon>
            </g>
            <g id="Group-28" transform="translate(35.000000, 31.000000)">
                <mask id="mask-18" fill="white">
                    <use xlink:href="#path-17"></use>
                </mask>
                <g id="Clip-27"></g>
                <polygon id="Fill-26" fill="#5A67FF" mask="url(#mask-18)" points="-4.003 27.176 34.927 27.176 34.927 -4.003 -4.003 -4.003"></polygon>
            </g>
            <g id="Group-31" transform="translate(35.000000, 24.000000)">
                <mask id="mask-20" fill="white">
                    <use xlink:href="#path-19"></use>
                </mask>
                <g id="Clip-30"></g>
                <polygon id="Fill-29" fill="#232F3D" mask="url(#mask-20)" points="-4.004 20.749 35.996 20.749 35.996 -4.755 -4.004 -4.755"></polygon>
            </g>
            <g id="Group-34" transform="translate(35.000000, 10.000000)">
                <mask id="mask-22" fill="white">
                    <use xlink:href="#path-21"></use>
                </mask>
                <g id="Clip-33"></g>
                <polygon id="Fill-32" fill="#FA3D6D" mask="url(#mask-22)" points="-4.004 26.997 34.927 26.997 34.927 -4.182 -4.004 -4.182"></polygon>
            </g>
            <g id="Group-37" transform="translate(35.000000, 3.000000)">
                <mask id="mask-24" fill="white">
                    <use xlink:href="#path-23"></use>
                </mask>
                <g id="Clip-36"></g>
                <polygon id="Fill-35" fill="#232F3D" mask="url(#mask-24)" points="-4.003 33.996 27.175 33.996 27.175 -4.934 -4.003 -4.934"></polygon>
            </g>
            <g id="Group-40" transform="translate(28.000000, 1.000000)">
                <mask id="mask-26" fill="white">
                    <use xlink:href="#path-25"></use>
                </mask>
                <g id="Clip-39"></g>
                <polygon id="Fill-38" fill="#FFB831" mask="url(#mask-26)" points="-4.756 35.997 20.748 35.997 20.748 -4.003 -4.756 -4.003"></polygon>
            </g>
            <path d="M37,61 C21.536,61 9,48.464 9,33 C9,17.536 21.536,5 37,5 C52.464,5 65,17.536 65,33 C65,48.464 52.464,61 37,61 M36,2 C19.432,2 6,15.432 6,32 C6,48.568 19.432,62 36,62 C52.568,62 66,48.568 66,32 C66,15.432 52.568,2 36,2" id="Fill-41" fill="#1B2533"></path>
            <g id="Group-45" transform="translate(4.000000, 0.000000)">
                <mask id="mask-28" fill="white">
                    <use xlink:href="#path-27"></use>
                </mask>
                <g id="Clip-44"></g>
                <polygon id="Fill-43" fill="#495566" mask="url(#mask-28)" points="-4 64 68 64 68 0 -4 0"></polygon>
            </g>
            <g id="Group-48" transform="translate(6.000000, 2.000000)">
                <mask id="mask-30" fill="white">
                    <use xlink:href="#path-29"></use>
                </mask>
                <g id="Clip-47"></g>
                <polygon id="Fill-46" fill="#FFFFFF" mask="url(#mask-30)" points="-4.978 64.977 64.977 64.977 64.977 -4.978 -4.978 -4.978"></polygon>
            </g>
            <g id="Group-53" transform="translate(2.000000, 27.000000)" fill="#1B2533">
                <polygon id="Fill-51" points="0.0003 11.0004 9.0003 6.0004 0.0003 0.9994"></polygon>
            </g>
            <polygon id="Fill-54" fill="#FFFFFF" points="1.0004 36.9996 10.0004 31.9996 1.0004 26.9996"></polygon>
            <mask id="mask-32" fill="white">
                <use xlink:href="#path-31"></use>
            </mask>
            <use id="Clip-56" fill="#232F3D" xlink:href="#path-31"></use>
        </g>
    </g>
</svg>