<?xml version="1.0" encoding="UTF-8"?>
<svg width="64px" height="64px" viewBox="0 0 64 64" version="1.1" xmlns="http://www.w3.org/2000/svg" xmlns:xlink="http://www.w3.org/1999/xlink">
    <!-- Generator: Sketch 52.2 (67145) - http://www.bohemiancoding.com/sketch -->
    <title>Game - Flip a Coin</title>
    <desc>Created with Sketch.</desc>
    <g id="Game---Flip-a-Coin" stroke="none" stroke-width="1" fill="none" fill-rule="evenodd">
        <g id="Flip-a-Coin">
            <polygon id="Fill-1" points="0 64 64 64 64 0 0 0"></polygon>
            <g id="Group-30" transform="translate(1.000000, 4.000000)">
                <path d="M20.4408,5.002 C32.2148,2.926 47.3178,10.136 54.1178,21.069 C60.9188,32.003 56.8848,42.588 45.1108,44.664 C33.3438,46.739 18.2338,39.53 11.4328,28.597 C4.6318,17.663 8.6738,7.077 20.4408,5.002 M58.0738,20.372 C49.9988,7.39 32.1268,-1.138 18.1548,1.326 C12.0638,2.4 7.7208,5.389 5.4288,9.494 C5.4348,9.483 1.8878,15.796 1.8878,15.796 C-1.0952,21.105 -0.6352,28.292 3.9268,35.627 C12.0018,48.609 29.8738,57.137 43.8388,54.674 C49.9188,53.602 54.2578,50.626 56.5548,46.536 C56.5548,46.536 60.0828,40.245 60.0698,40.268 C63.0948,34.952 62.6548,27.737 58.0738,20.372" id="Fill-2" fill="#E7A02A"></path>
                <path d="M55.826,37.7988 L52.268,44.1328 C54.786,39.6498 54.403,33.5828 50.56,27.4038 C43.76,16.4708 28.657,9.2598 16.883,11.3358 C11.764,12.2378 8.108,14.7508 6.169,18.2018 L9.727,11.8678 C11.666,8.4168 15.323,5.9038 20.441,5.0018 C32.215,2.9258 47.318,10.1358 54.118,21.0698 C57.961,27.2478 58.344,33.3158 55.826,37.7988" id="Fill-4" fill="#E7A02A"></path>
                <path d="M19.2977,3.1641 C6.4427,5.4311 2.0327,16.9991 9.4627,28.9431 C16.8917,40.8891 33.3987,48.7681 46.2537,46.5021 C59.1157,44.2341 63.5257,32.6661 56.0957,20.7211 C48.6667,8.7761 32.1597,0.8961 19.2977,3.1641" id="Fill-6" fill="#F6C932"></path>
                <path d="M60.1126,40.2021 L56.5546,46.5361 C54.2576,50.6261 49.9186,53.6011 43.8386,54.6741 C29.8736,57.1371 12.0016,48.6091 3.9266,35.6271 C-0.6354,28.2921 -1.0954,21.1041 1.8876,15.7961 L5.4456,9.4611 C2.4636,14.7701 2.9226,21.9581 7.4846,29.2931 C15.5596,42.2751 33.4316,50.8021 47.3966,48.3401 C53.4756,47.2671 57.8156,44.2921 60.1126,40.2021" id="Fill-8" fill="#E7A02A"></path>
                <path d="M45.1107,44.6641 C56.8847,42.5881 60.9187,32.0031 54.1177,21.0691 C47.3177,10.1361 32.2147,2.9261 20.4407,5.0021 C8.6737,7.0771 4.6317,17.6631 11.4327,28.5971 C18.2337,39.5301 33.3437,46.7391 45.1107,44.6641 M18.1547,1.3261 C32.1267,-1.1379 49.9987,7.3901 58.0737,20.3721 C66.1497,33.3551 61.3687,45.8761 47.3967,48.3401 C33.4317,50.8021 15.5597,42.2751 7.4847,29.2931 C-0.5903,16.3101 4.1897,3.7891 18.1547,1.3261" id="Fill-10" fill="#F1E035"></path>
                <path d="M10.8704,29.1592 C17.6714,40.0932 32.7814,47.3022 44.5484,45.2262 C48.4084,44.5462 51.4304,42.9462 53.5174,40.7232 C51.4634,42.6522 48.6374,44.0422 45.1104,44.6642 C33.3434,46.7392 18.2334,39.5302 11.4324,28.5972 C6.8624,21.2482 7.1954,14.0602 11.4744,9.5042 C6.6694,14.0152 6.1064,21.5002 10.8704,29.1592" id="Fill-12" fill="#FBF839"></path>
                <polygon id="Fill-14" fill="#E7A02A" points="22.8494 12.1016 22.4884 27.1076 34.2094 30.3666 39.9604 24.0276"></polygon>
                <polygon id="Fill-16" fill="#E7A02A" points="40.9261 25.5654 35.1681 31.9064 23.4471 28.6484 39.2961 38.5444"></polygon>
                <polygon id="Fill-18" fill="#F1E035" points="23.9212 11.6123 23.5602 26.6183 35.2812 29.8773 41.0322 23.5373"></polygon>
                <polygon id="Fill-20" fill="#F1E035" points="41.9979 25.0762 36.2399 31.4172 24.5189 28.1582 40.3679 38.0542"></polygon>
                <polygon id="Fill-22" fill="#FBF839" points="34.8426 29.7549 35.2816 29.8769 41.0326 23.5369 23.9216 11.6119 23.9046 12.3169 40.2976 23.7409"></polygon>
                <polygon id="Fill-24" fill="#FBF839" points="41.1746 25.9824 39.7096 37.6424 40.3676 38.0534 41.9976 25.0764"></polygon>
                <polygon id="Fill-26" fill="#FBF839" points="25.6976 28.8945 35.5046 31.6215 35.8006 31.2945 24.5186 28.1585"></polygon>
                <path d="M54.118,21.0693 C47.318,10.1353 32.215,2.9253 20.441,5.0023 C16.448,5.7063 13.348,7.3913 11.256,9.7363 C13.293,7.9033 16.05,6.5833 19.461,5.9813 C31.235,3.9053 46.338,11.1163 53.139,22.0493 C57.632,29.2733 57.392,36.3423 53.318,40.9093 C58.308,36.4183 58.948,28.8343 54.118,21.0693" id="Fill-28" fill="#E7A02A"></path>
            </g>
        </g>
    </g>
</svg>