<svg xmlns="http://www.w3.org/2000/svg" xmlns:xlink="http://www.w3.org/1999/xlink" width="194" height="32" viewBox="0 0 194 32">
    <defs>
        <path id="a" d="M0 32h193.992V0H0z"/>
    </defs>
    <g fill="none" fill-rule="evenodd">
        <path fill="#FFF" d="M53.741 11.974h-5.033v12.272h-4.07V11.974h-5.033V8.61h14.136z"/>
        <g>
            <path fill="#FFF" d="M55.774 7.754h3.79v6.319c.922-1.093 2.272-1.821 3.963-1.821 2.678 0 4.434 1.885 4.434 4.755v7.239H64.17v-6.447c0-1.371-.878-2.25-2.228-2.25-1.413 0-2.377.986-2.377 2.443v6.254h-3.791V7.754zM73.936 17.328h4.498c-.13-1.242-.814-2.185-2.228-2.185-1.2 0-2.056.771-2.27 2.185m8.03 2.12h-7.945c.407 1.564 1.585 2.056 3.192 2.056 1.049 0 2.206-.214 3.598-.706l.856 2.698a11.299 11.299 0 0 1-4.861 1.071c-3.92 0-6.854-2.249-6.854-6.168 0-3.62 2.57-6.147 6.297-6.147 3.512 0 5.804 2.334 5.804 5.89 0 .385-.021.9-.086 1.306M84.215 8.61h4.069v12.273h7.754v3.363H84.215zM98.135 19.813v-7.24h3.79v6.447c0 1.37.879 2.25 2.229 2.25 1.413 0 2.377-.986 2.377-2.442v-6.255h3.79v11.674h-3.79v-1.5c-.921 1.091-2.27 1.82-3.962 1.82-2.678 0-4.434-1.884-4.434-4.755M112.184 18.399c0-3.898 2.999-6.125 6.704-6.147 1.435 0 2.87.3 4.305.942l-.9 3.17c-1.092-.557-2.163-.814-3.106-.814-1.82 0-3.041.985-3.041 2.849 0 1.885 1.22 2.87 3.04 2.87.944 0 2.015-.257 3.107-.814l.9 3.17c-1.435.642-2.87.942-4.305.942-3.705 0-6.704-2.25-6.704-6.168M130.173 19.962l-1.35 1.328v2.956h-3.79V7.754h3.79v9.103l4.455-4.284h4.52l-4.755 4.862 5.183 6.811h-4.604z"/>
            <path fill="#FFF" d="M151.547 12.573l-6.64 15.957h-4.133l1.906-4.22-5.011-11.737h4.197l2.785 7.325 2.72-7.325zM157.007 15.572h3.577c1.2 0 1.927-.686 1.927-1.8 0-1.134-.75-1.798-1.927-1.798h-3.577v3.598zm6.961 8.674l-4.605-5.354h-2.356v5.354h-4.069V8.61h8.353c3.212 0 5.397 2.035 5.397 5.098 0 2.034-1.2 3.748-3.149 4.583l5.27 5.954h-4.84zM177.803 18.399c0-1.692-1.114-2.85-2.72-2.85-1.628 0-2.72 1.158-2.72 2.85 0 1.713 1.092 2.892 2.72 2.892 1.606 0 2.72-1.18 2.72-2.892m-9.402 0c0-3.62 2.74-6.147 6.682-6.147 3.919 0 6.66 2.527 6.66 6.147 0 3.64-2.741 6.168-6.66 6.168-3.941 0-6.682-2.527-6.682-6.168"/>
            <mask id="b" fill="#fff">
                <use xlink:href="#a"/>
            </mask>
            <path fill="#FFF" d="M183.734 24.246h3.791V7.754h-3.791zM190.202 24.246h3.791V7.754h-3.791z" mask="url(#b)"/>
            <path fill="#27EFAC" d="M18.585 16.698l.002-.01a.449.449 0 0 1 .545-.314c6.509 1.675 11.32 2.578 12.683-2.506.84-3.14-1.398-4.13-2.291-5.675-.892-1.546-.631-3.981-3.77-4.822-5.084-1.362-6.708 3.257-8.511 9.73a.448.448 0 0 1-.545.315l-.01-.002a.449.449 0 0 1-.314-.545C18.049 6.36 18.952 1.549 13.868.186c-3.14-.841-4.13 1.399-5.676 2.29-1.545.893-3.98.632-4.821 3.77-1.362 5.085 3.257 6.709 9.73 8.513a.446.446 0 0 1 .315.544l-.002.009a.448.448 0 0 1-.545.315C6.359 13.952 1.548 13.05.186 18.134c-.841 3.138 1.399 4.129 2.29 5.675.893 1.545.632 3.98 3.77 4.82 5.083 1.363 6.708-3.254 8.51-9.725a.451.451 0 0 1 .552-.317c.238.064.38.31.318.549-1.674 6.507-2.576 11.317 2.507 12.679 3.139.84 4.13-1.398 5.676-2.29 1.545-.893 3.98-.632 4.82-3.77 1.363-5.084-3.256-6.708-9.73-8.512a.448.448 0 0 1-.314-.545" mask="url(#b)"/>
        </g>
    </g>
</svg>
