<svg xmlns="http://www.w3.org/2000/svg" width="32" height="32" viewBox="0 0 32 32">
    <path fill="#27EFAC" fill-rule="evenodd" d="M18.584 16.697l.003-.009a.449.449 0 0 1 .544-.315c6.51 1.675 11.322 2.578 12.683-2.506.842-3.139-1.398-4.129-2.29-5.675-.893-1.546-.632-3.98-3.77-4.822-5.085-1.362-6.709 3.257-8.512 9.731a.448.448 0 0 1-.544.314l-.01-.002a.449.449 0 0 1-.314-.545C18.049 6.36 18.951 1.548 13.867.185c-3.14-.84-4.13 1.4-5.677 2.291-1.545.892-3.98.631-4.82 3.77-1.362 5.084 3.257 6.708 9.73 8.512a.446.446 0 0 1 .314.544l-.001.01a.448.448 0 0 1-.546.314C6.36 13.951 1.548 13.05.185 18.133c-.84 3.138 1.4 4.13 2.292 5.675.892 1.545.63 3.98 3.768 4.821 5.083 1.362 6.708-3.255 8.512-9.726a.451.451 0 0 1 .55-.317c.239.064.38.31.319.55-1.675 6.506-2.576 11.316 2.507 12.678 3.139.841 4.13-1.398 5.675-2.29 1.546-.893 3.98-.632 4.822-3.77 1.361-5.084-3.258-6.708-9.732-8.512a.448.448 0 0 1-.314-.545"/>
</svg>
