<?xml version="1.0" encoding="UTF-8"?>
<svg width="64px" height="64px" viewBox="0 0 64 64" version="1.1" xmlns="http://www.w3.org/2000/svg" xmlns:xlink="http://www.w3.org/1999/xlink">
    <!-- Generator: Sketch 52.2 (67145) - http://www.bohemiancoding.com/sketch -->
    <title>Coin - Tails - Select</title>
    <desc>Created with Sketch.</desc>
    <g id="Coin---Tails---Select" stroke="none" stroke-width="1" fill="none" fill-rule="evenodd">
        <g id="Group-21">
            <path d="M32,61.5 C15.734,61.5 2.5,48.267 2.5,32 C2.5,15.733 15.734,2.5 32,2.5 C48.266,2.5 61.5,15.733 61.5,32 C61.5,48.267 48.266,61.5 32,61.5" id="Fill-1" fill="#F6C932"></path>
            <path d="M32,61 C17.112,61 5,48.888 5,34 C5,19.112 17.112,7 32,7 C46.888,7 59,19.112 59,34 C59,48.888 46.888,61 32,61 M32,2.5 C15.734,2.5 2.5,15.733 2.5,32 C2.5,48.267 15.734,61.5 32,61.5 C48.266,61.5 61.5,48.267 61.5,32 C61.5,15.733 48.266,2.5 32,2.5" id="Fill-3" fill="#E7A02A"></path>
            <path d="M32,57 C17.112,57 5,44.888 5,30 C5,15.112 17.112,3 32,3 C46.888,3 59,15.112 59,30 C59,44.888 46.888,57 32,57 M32,2.5 C15.734,2.5 2.5,15.733 2.5,32 C2.5,48.267 15.734,61.5 32,61.5 C48.266,61.5 61.5,48.267 61.5,32 C61.5,15.733 48.266,2.5 32,2.5" id="Fill-5" fill="#FBF839"></path>
            <path d="M32,0 C14.327,0 0,14.327 0,32 C0,49.673 14.327,64 32,64 C49.673,64 64,49.673 64,32 C64,14.327 49.673,0 32,0 M32,5 C46.888,5 59,17.112 59,32 C59,46.888 46.888,59 32,59 C17.112,59 5,46.888 5,32 C5,17.112 17.112,5 32,5" id="Fill-7" fill="#F1E035"></path>
            <polygon id="Fill-9" fill="#E7A02A" points="31.998 15 20.946 33.337 31.998 39.866 43.045 33.337"></polygon>
            <polygon id="Fill-11" fill="#E7A02A" points="31.998 51 43.054 35.431 31.998 41.96 20.946 35.431"></polygon>
            <polygon id="Fill-13" fill="#F1E035" points="31.998 14 20.946 32.337 31.998 38.866 43.045 32.337"></polygon>
            <polygon id="Fill-15" fill="#F1E035" points="31.998 50 43.054 34.431 31.998 40.96 20.946 34.431"></polygon>
            <polygon id="Fill-17" fill="#FBF839" points="31.998 15 42.601 32.6 43.045 32.337 31.998 14 20.946 32.337 21.391 32.6"></polygon>
            <polygon id="Fill-19" fill="#FBF839" points="31.998 41.96 41.831 36.152 43.054 34.431 31.998 40.96 20.946 34.431 22.169 36.152"></polygon>
        </g>
    </g>
</svg>