<?xml version="1.0" encoding="UTF-8"?>
<svg width="96px" height="64px" viewBox="0 0 96 64" version="1.1" xmlns="http://www.w3.org/2000/svg" xmlns:xlink="http://www.w3.org/1999/xlink">
    <!-- Generator: Sketch 52.2 (67145) - http://www.bohemiancoding.com/sketch -->
    <title>Game - 2 Dice</title>
    <desc>Created with Sketch.</desc>
    <g id="Game---2-Dice" stroke="none" stroke-width="1" fill="none" fill-rule="evenodd">
        <g id="Group-61">
            <polygon id="Fill-1" points="0 64 96 64 96 0 0 0"></polygon>
            <g id="Group-60" transform="translate(7.000000, 4.000000)">
                <path d="M18.4541,1.0947 L1.7091,12.8907 C0.8381,13.5047 0.3571,14.5337 0.4471,15.5967 L2.1751,36.0067 C2.2661,37.0777 2.9221,38.0187 3.8961,38.4727 L22.5511,47.1707 C23.5241,47.6257 24.6671,47.5247 25.5461,46.9057 L42.2911,35.1097 C43.1621,34.4947 43.6421,33.4657 43.5531,32.4037 L41.8251,11.9927 C41.7341,10.9217 41.0781,9.9817 40.1031,9.5277 L21.4491,0.8287 C20.4751,0.3737 19.3331,0.4757 18.4541,1.0947" id="Fill-2" fill="#FFFFFF"></path>
                <path d="M18.5313,1.958 L2.8513,13.004 C2.3803,13.336 2.4433,14.053 2.9663,14.297 L20.4553,22.452 C21.4283,22.906 22.5713,22.805 23.4503,22.186 L39.1303,11.14 C39.6013,10.809 39.5373,10.091 39.0153,9.848 L21.5263,1.691 C20.5523,1.237 19.4103,1.339 18.5313,1.958" id="Fill-4" fill="#FFFFFF"></path>
                <path d="M23.0352,26.1289 L24.6522,45.2369 C24.7012,45.8149 25.3572,46.1199 25.8312,45.7869 L41.5082,34.7439 C42.3792,34.1299 42.8592,33.1009 42.7692,32.0379 L41.1522,12.9309 C41.1032,12.3539 40.4462,12.0469 39.9722,12.3809 L24.2972,23.4239 C23.4262,24.0369 22.9452,25.0669 23.0352,26.1289" id="Fill-6" fill="#E6E6E6"></path>
                <path d="M1.2676,16.3994 L2.8856,35.5104 C2.9756,36.5824 3.6326,37.5224 4.6066,37.9764 L22.0956,46.1314 C22.6176,46.3754 23.2076,45.9624 23.1596,45.3884 L21.5416,26.2774 C21.4516,25.2064 20.7946,24.2654 19.8206,23.8114 L2.3316,15.6564 C1.8096,15.4134 1.2196,15.8254 1.2676,16.3994" id="Fill-8" fill="#E6E6E6"></path>
                <path d="M6.7705,32.2949 C5.6415,31.7689 4.8095,32.3409 4.9145,33.5789 C5.0185,34.8139 6.0205,36.2409 7.1485,36.7669 C8.2775,37.2929 9.1065,36.7199 9.0015,35.4849 C8.8965,34.2469 7.8985,32.8209 6.7705,32.2949" id="Fill-10" fill="#17202E"></path>
                <path d="M17.2793,25.0215 C16.1503,24.4955 15.3213,25.0725 15.4253,26.3065 C15.5303,27.5415 16.5293,28.9665 17.6573,29.4935 C18.7893,30.0205 19.6183,29.4475 19.5133,28.2115 C19.4093,26.9775 18.4103,25.5485 17.2793,25.0215" id="Fill-12" fill="#17202E"></path>
                <path d="M12.0264,28.6592 C10.8944,28.1312 10.0654,28.7082 10.1704,29.9422 C10.2744,31.1782 11.2734,32.6032 12.4044,33.1312 C13.5334,33.6572 14.3624,33.0832 14.2574,31.8482 C14.1534,30.6142 13.1544,29.1842 12.0264,28.6592" id="Fill-14" fill="#17202E"></path>
                <path d="M27.9678,36.8525 C26.9478,37.5665 26.2128,39.1475 26.3238,40.3815 C26.4358,41.6155 27.3528,42.0395 28.3718,41.3255 C29.3928,40.6115 30.1298,39.0285 30.0188,37.7945 C29.9068,36.5605 28.9888,36.1385 27.9678,36.8525" id="Fill-16" fill="#17202E"></path>
                <path d="M37.2939,16.8525 C36.2739,17.5675 35.5359,19.1495 35.6479,20.3835 C35.7589,21.6185 36.6789,22.0395 37.6979,21.3265 C38.7179,20.6125 39.4559,19.0295 39.3449,17.7945 C39.2329,16.5615 38.3139,16.1385 37.2939,16.8525" id="Fill-18" fill="#17202E"></path>
                <path d="M22.8262,10.7803 C21.6982,10.2543 19.9612,10.4043 18.9452,11.1203 C17.9322,11.8333 18.0292,12.8393 19.1572,13.3653 C20.2862,13.8903 22.0232,13.7413 23.0362,13.0273 C24.0522,12.3113 23.9552,11.3063 22.8262,10.7803" id="Fill-20" fill="#17202E"></path>
                <path d="M64.1084,7.8701 L44.3374,13.2271 C43.3094,13.5061 42.5054,14.3091 42.2274,15.3381 L36.8704,35.1081 C36.5884,36.1451 36.8834,37.2541 37.6444,38.0141 L52.1984,52.5681 C52.9584,53.3281 54.0674,53.6241 55.1044,53.3431 L74.8744,47.9851 C75.9024,47.7061 76.7064,46.9031 76.9854,45.8741 L82.3424,26.1041 C82.6244,25.0661 82.3284,23.9581 81.5684,23.1981 L67.0134,8.6431 C66.2544,7.8841 65.1454,7.5891 64.1084,7.8701" id="Fill-22" fill="#FFFFFF"></path>
                <path d="M63.8857,8.707 L45.3727,13.724 C44.8177,13.874 44.6317,14.57 45.0387,14.978 L58.6827,28.623 C59.4437,29.383 60.5517,29.679 61.5887,29.397 L80.1007,24.381 C80.6567,24.229 80.8427,23.534 80.4357,23.126 L66.7907,9.481 C66.0317,8.722 64.9227,8.426 63.8857,8.707" id="Fill-24" fill="#FFFFFF"></path>
                <path d="M59.8496,32.9609 L54.8346,51.4699 C54.6836,52.0279 55.1966,52.5409 55.7546,52.3899 L74.2626,47.3739 C75.2916,47.0959 76.0946,46.2919 76.3736,45.2629 L81.3886,26.7549 C81.5396,26.1949 81.0286,25.6839 80.4686,25.8349 L61.9606,30.8499 C60.9326,31.1289 60.1286,31.9329 59.8496,32.9609" id="Fill-26" fill="#E6E6E6"></path>
                <path d="M42.7246,16.373 L37.7076,34.885 C37.4266,35.923 37.7216,37.031 38.4816,37.791 L52.1266,51.436 C52.5346,51.843 53.2296,51.657 53.3806,51.102 L58.3966,32.589 C58.6776,31.552 58.3826,30.443 57.6216,29.684 L43.9786,16.039 C43.5716,15.631 42.8746,15.816 42.7246,16.373" id="Fill-28" fill="#E6E6E6"></path>
                <path d="M45.7842,20.915 C44.9042,20.035 43.9262,20.291 43.6012,21.487 C43.2772,22.683 43.7302,24.366 44.6102,25.247 C45.4912,26.127 46.4672,25.872 46.7912,24.676 C47.1142,23.48 46.6652,21.796 45.7842,20.915" id="Fill-30" fill="#17202E"></path>
                <path d="M42.458,33.1924 C41.577,32.3114 40.6,32.5644 40.274,33.7634 C39.95,34.9604 40.403,36.6434 41.284,37.5234 C42.164,38.4044 43.14,38.1484 43.464,36.9534 C43.789,35.7544 43.338,34.0724 42.458,33.1924" id="Fill-32" fill="#17202E"></path>
                <path d="M51.4932,42.2275 C50.6132,41.3475 49.6382,41.6025 49.3122,42.8015 C48.9892,43.9985 49.4392,45.6785 50.3192,46.5595 C51.2022,47.4425 52.1782,47.1865 52.5022,45.9915 C52.8272,44.7915 52.3762,43.1105 51.4932,42.2275" id="Fill-34" fill="#17202E"></path>
                <path d="M54.8203,29.9512 C53.9403,29.0702 52.9643,29.3292 52.6393,30.5252 C52.3153,31.7212 52.7663,33.4022 53.6463,34.2822 C54.5293,35.1652 55.5053,34.9102 55.8293,33.7142 C56.1533,32.5182 55.7033,30.8342 54.8203,29.9512" id="Fill-36" fill="#17202E"></path>
                <path d="M48.6406,31.5723 C47.7576,30.6893 46.7816,30.9483 46.4566,32.1443 C46.1326,33.3403 46.5836,35.0213 47.4666,35.9043 C48.3466,36.7853 49.3226,36.5293 49.6466,35.3333 C49.9706,34.1373 49.5206,32.4533 48.6406,31.5723" id="Fill-38" fill="#17202E"></path>
                <path d="M64.0762,32.4287 C62.8732,32.7507 61.6412,33.9857 61.3242,35.1827 C61.0072,36.3807 61.7222,37.0927 62.9262,36.7707 C64.1282,36.4487 65.3632,35.2137 65.6802,34.0157 C65.9982,32.8187 65.2782,32.1067 64.0762,32.4287" id="Fill-40" fill="#17202E"></path>
                <path d="M60.8184,44.7246 C59.6164,45.0466 58.3844,46.2816 58.0674,47.4786 C57.7504,48.6766 58.4654,49.3886 59.6684,49.0666 C60.8714,48.7446 62.1064,47.5086 62.4224,46.3116 C62.7404,45.1136 62.0214,44.4026 60.8184,44.7246" id="Fill-42" fill="#17202E"></path>
                <path d="M73.165,41.417 C71.962,41.738 70.727,42.974 70.41,44.171 C70.093,45.369 70.812,46.08 72.015,45.758 C73.218,45.436 74.452,44.201 74.769,43.003 C75.087,41.806 74.367,41.095 73.165,41.417" id="Fill-44" fill="#17202E"></path>
                <path d="M76.4219,29.1211 C75.2199,29.4431 73.9839,30.6781 73.6669,31.8761 C73.3509,33.0731 74.0689,33.7851 75.2729,33.4631 C76.4749,33.1411 77.7099,31.9051 78.0269,30.7081 C78.3439,29.5101 77.6249,28.7991 76.4219,29.1211" id="Fill-46" fill="#17202E"></path>
                <path d="M62.4473,38.5771 C61.2443,38.8991 60.0123,40.1331 59.6953,41.3311 C59.3783,42.5281 60.0943,43.2401 61.2973,42.9181 C62.5003,42.5971 63.7343,41.3611 64.0513,40.1641 C64.3693,38.9661 63.6493,38.2551 62.4473,38.5771" id="Fill-48" fill="#17202E"></path>
                <path d="M74.7939,35.2686 C73.5909,35.5906 72.3559,36.8266 72.0389,38.0236 C71.7219,39.2216 72.4399,39.9326 73.6439,39.6106 C74.8459,39.2886 76.0809,38.0526 76.3979,36.8556 C76.7159,35.6586 75.9959,34.9466 74.7939,35.2686" id="Fill-50" fill="#17202E"></path>
                <path d="M66.5234,12.2842 C65.6434,11.4032 63.9564,10.9512 62.7604,11.2752 C61.5644,11.5992 61.3114,12.5772 62.1914,13.4582 C63.0724,14.3382 64.7554,14.7912 65.9524,14.4672 C67.1474,14.1422 67.4044,13.1642 66.5234,12.2842" id="Fill-52" fill="#17202E"></path>
                <path d="M54.2471,15.6104 C53.3661,14.7304 51.6831,14.2774 50.4861,14.6014 C49.2881,14.9264 49.0341,15.9044 49.9151,16.7844 C50.7951,17.6654 52.4791,18.1184 53.6781,17.7934 C54.8741,17.4684 55.1271,16.4914 54.2471,15.6104" id="Fill-54" fill="#17202E"></path>
                <path d="M63.2852,24.6484 C62.4042,23.7684 60.7212,23.3154 59.5252,23.6394 C58.3262,23.9644 58.0732,24.9424 58.9532,25.8224 C59.8342,26.7034 61.5142,27.1534 62.7142,26.8294 C63.9102,26.5044 64.1652,25.5294 63.2852,24.6484" id="Fill-56" fill="#17202E"></path>
                <path d="M75.5615,21.3223 C74.6815,20.4413 72.9945,19.9893 71.7985,20.3133 C70.6025,20.6373 70.3495,21.6153 71.2305,22.4963 C72.1105,23.3763 73.7915,23.8273 74.9875,23.5033 C76.1835,23.1783 76.4425,22.2023 75.5615,21.3223" id="Fill-58" fill="#17202E"></path>
            </g>
        </g>
    </g>
</svg>